<?xml version="1.0" encoding="UTF-8"?>
<svg id="Layer_1" data-name="Layer 1" xmlns="http://www.w3.org/2000/svg" viewBox="0 0 6445.261393584 4601.207471781">
  <defs>
    <style>
      .cls-1 {
        fill: #29abe2;
      }

      .cls-2 {
        fill: #4c4b16;
      }

      .cls-3 {
        fill: #ab9553;
      }

      .cls-4 {
        fill: #7da632;
      }

      .cls-5 {
        fill: #8abfa3;
      }

      .cls-6 {
        fill: #716c34;
      }

      .cls-7 {
        fill: #7f7a3d;
      }
    </style>
  </defs>
  <path class="cls-4" d="M5131.185638422,2059.684228299v1155.016026334c0,765.685070561-620.71111769,1386.507217149-1386.507217149,1386.507217149H530.089872544v-373.247336653l1704.850086613-1704.960438505,783.208680331,783.210034342h866.51285028l1246.524148655-1246.525502666Z"/>
  <path class="cls-7" d="M532.309096498,1306.644943045c-1.443375677,26.398474569-2.219223954,53.019683941-2.219223954,79.862274103v2269.767828921l1195.28025008-1696.308308508,30.170072082-42.815180384,31.501064851-48.916353744,60.67323086-.332409689h216.073068079v-561.2578507H532.309096498ZM1580.286494866,2081.646962982l-.111028898-.111028898h.111028898v.111028898Z"/>
  <polygon class="cls-6" points="3597.486598459 653.322471523 3597.486598459 2505.030617249 3451.405064627 2651.112828086 2779.115607657 1978.823371117 2668.304705173 1867.902793745 2063.787558496 1867.902793745 2063.787558496 653.322471523 3597.486598459 653.322471523"/>
  <polygon class="cls-2" points="5131.185638422 0 5131.185638422 971.220548388 3597.486598459 2505.030617249 3597.486598459 0 5131.185638422 0"/>
  <polygon points="1580.286494866 2081.535934084 1580.286494866 2081.646962982 1580.175465967 2081.535934084 1580.286494866 2081.535934084"/>
  <polygon class="cls-1" points="1580.286494866 2081.535934084 1580.286494866 2081.646962982 1580.175465967 2081.535934084 1580.286494866 2081.535934084"/>
  <g>
    <polygon class="cls-5" points="2622.273748772 1978.823371117 2156.518352708 2444.57876718 530.089872544 4071.118276243 0 4601.207471781 530.089872544 3848.833682912 1847.492432621 1979.155780806 1847.714490417 1978.823371117 2622.273748772 1978.823371117"/>
    <polygon class="cls-3" points="3838.738854243 3195.289153593 3064.071275011 3195.289153593 2313.358857583 2444.57876718 2234.939959156 2366.157837738 2622.273748772 1978.823371117 3838.738854243 3195.289153593"/>
  </g>
  <polygon class="cls-5" points="6445.261393584 157.17494558 6308.498163139 667.630982282 6171.732224673 1178.087695989 6092.312712151 1098.557831575 6013.892459714 1020.136902132 5131.185638422 1902.843046419 3917.160460691 3116.86822415 3838.738854243 3195.289153593 3451.405064627 2807.954686972 5626.557316088 632.802435511 5548.13706365 554.381506068 5424.460349078 430.704791497 5934.915708775 293.939530036 6445.261393584 157.17494558"/>
</svg>